<svg width="88" height="86" viewBox="0 0 88 86" fill="none" xmlns="http://www.w3.org/2000/svg">
<path d="M28.4723 36.8795H37.888C35.5369 35.421 34.6568 33.3773 33.4756 29.5877L29.9433 16.6064C28.3275 10.7731 27.0016 8 20.5276 8H7.0002V11.5022H8.91676C12.8837 11.5022 13.3295 12.9605 14.5106 17.3355L17.5972 28.715C19.2129 34.2609 21.7201 36.8795 28.4836 36.8795H28.4723ZM50.2566 36.8795H59.6615C66.425 36.8795 68.7762 34.2499 70.4031 28.715L73.4896 17.3355C74.6708 12.9604 75.2502 11.5022 79.0835 11.5022H81V8H67.6174C60.9986 8 59.6727 10.6294 58.2016 16.6064L54.6694 29.5877C53.4882 33.5208 52.6078 35.421 50.2566 36.8795ZM37.888 49.1205H50.2573L50.2566 36.8795H37.888V49.1205ZM7.0002 78H20.5276C27.0016 78 28.3275 75.2269 29.9433 69.3936L33.4756 56.412C34.6568 52.6227 35.5369 50.5787 37.888 49.1205H28.4723C21.7088 49.1205 19.2017 51.7498 17.5859 57.285L14.4993 68.6645C13.3182 73.0393 12.8836 74.4978 8.90543 74.4978H7L7.0002 78ZM67.5941 78H80.9767V74.4978H79.0602C75.238 74.4978 74.6475 73.0393 73.4663 68.6645L70.3798 57.285C68.764 51.7387 66.4129 49.1205 59.6382 49.1205H50.2573C52.6084 50.5787 53.4537 52.4792 54.6349 56.412L58.1672 69.3936C59.6382 75.3704 60.9641 78 67.5829 78H67.5941Z" fill="#7856FF"/>
</svg>
